<svg width="20" height="22" viewBox="0 0 20 22" fill="none" xmlns="http://www.w3.org/2000/svg">
<path d="M14.2915 4.93164C14.2915 4.57586 14.0031 4.28711 13.6478 4.28711H6.35177C5.99641 4.28711 5.70801 4.57586 5.70801 4.93164C5.70801 5.28742 5.99641 5.57617 6.35177 5.57617H13.6478C14.0031 5.57617 14.2915 5.28742 14.2915 4.93164Z" fill="white"/>
<path d="M13.2319 8.79582C13.3302 8.84094 13.4336 8.85898 13.5345 8.85297C13.7658 8.83965 13.9817 8.70215 14.0843 8.47656C14.2319 8.15258 14.089 7.77016 13.7654 7.62277C12.9088 7.23219 12.4564 6.56789 12.2186 6.00586H9.56163C9.29811 6.51117 9.11614 7.14367 9.16249 7.9025C9.18438 8.25699 9.48781 8.52684 9.84145 8.50664H9.84445C10.1994 8.48473 10.4693 8.17879 10.4474 7.82344C10.4054 7.14066 10.6539 6.61 10.9307 6.23832C11.2285 7.07922 11.8676 8.17406 13.2319 8.79582Z" fill="white"/>
<path d="M8.13497 3.85633H11.8654C12.5417 2.77782 13.001 1.64903 13.0705 0.877309C13.1413 0.0901211 12.4529 -0.156519 11.7928 0.0939883C11.1328 0.344496 10.5246 0.466957 10.0002 0.466957C9.47571 0.466957 8.86757 0.344496 8.2075 0.0939883C7.54742 -0.156519 6.85903 0.0901211 6.92984 0.877309C6.99937 1.64903 7.45858 2.77782 8.13497 3.85633Z" fill="white"/>
<path d="M14.1126 5.89844C13.9718 5.96633 13.8143 6.00457 13.6478 6.00457H12.6916C12.9692 6.56531 13.389 6.97781 13.9435 7.23047C14.2044 7.34906 14.4031 7.56262 14.5036 7.8316C14.604 8.10059 14.5937 8.39234 14.4748 8.65359C14.3096 9.01711 13.9585 9.25774 13.5594 9.28051C13.5392 9.2818 13.5182 9.28223 13.4971 9.28223C13.3435 9.28223 13.1941 9.24957 13.0534 9.18469C11.9903 8.7 11.3302 7.95449 10.9212 7.24164C10.8796 7.42039 10.8641 7.60516 10.8762 7.79508C10.9126 8.38633 10.4616 8.89723 9.87103 8.93375C9.86588 8.93375 9.8603 8.93418 9.85515 8.93461C9.83799 8.93547 9.82125 8.9359 9.80451 8.9359C9.23929 8.9359 8.76934 8.49289 8.73458 7.92742C8.69338 7.25109 8.8114 6.6057 9.08521 6.00457H6.35179C6.18527 6.00457 6.02777 5.96633 5.887 5.89844C3.09478 7.46723 0 10.7926 0 17.549C0 21.7058 3.26645 21.9997 9.99978 21.9997C16.7331 21.9997 19.9996 21.7062 19.9996 17.549C19.9996 10.7926 16.9048 7.46723 14.1121 5.89844H14.1126ZM12.0027 12.5839H13.3293L12.9645 13.9852H11.9894C11.8877 14.6005 11.6521 15.1028 11.283 15.4925C10.9139 15.8822 10.3886 16.1809 9.70795 16.3888L12.4006 19.6957V19.795H9.90708L6.86294 16.1564L6.8565 14.875H8.42171C9.05388 14.8617 9.46289 14.5652 9.64872 13.9852H6.66423L7.02903 12.5839H9.5955C9.40108 12.1633 9.02084 11.9441 8.45475 11.9265H6.67067L7.09513 10.127H13.3358L12.971 11.5282H11.6246C11.8191 11.8406 11.9452 12.1925 12.0027 12.5839Z" fill="white"/>
<path d="M6.35216 3.85715H7.63153C7.02511 2.84137 6.60237 1.78863 6.51096 0.994141C6.13028 1.0225 5.82728 1.18535 5.62171 1.39117C5.31785 1.69539 4.86893 2.70301 6.07577 3.89367C6.16375 3.86961 6.25646 3.85715 6.35216 3.85715Z" fill="white"/>
<path d="M13.6475 3.85715C13.7432 3.85715 13.8359 3.86961 13.9239 3.89367C15.1308 2.70301 14.6818 1.69539 14.378 1.39117C14.1724 1.18535 13.8694 1.0225 13.4887 0.994141C13.3973 1.78863 12.9746 2.84137 12.3682 3.85715H13.6475Z" fill="white"/>
</svg>
