<svg width="20" height="20" viewBox="0 0 20 20" fill="none" xmlns="http://www.w3.org/2000/svg">
<g clip-path="url(#clip0_2767_13086)">
<path d="M13.6357 4.55469L14.2327 4.3703L14.4104 4.94587L13.8135 5.13026L13.6357 4.55469Z" fill="white"/>
<path d="M13.9912 5.70703L14.5881 5.52264L14.7659 6.09822L14.169 6.2826L13.9912 5.70703Z" fill="white"/>
<path d="M14.3467 6.85742L14.9436 6.67304L15.1214 7.24861L14.5245 7.433L14.3467 6.85742Z" fill="white"/>
<path d="M17.6596 4.30777L17.976 4.20988L17.0683 1.27344L0.646042 6.35C0.531179 6.38545 0.424429 6.44319 0.331892 6.51991C0.239356 6.59664 0.162847 6.69085 0.10674 6.79716C0.0506337 6.90347 0.0160286 7.0198 0.0049032 7.13949C-0.00622222 7.25918 0.00635016 7.3799 0.0419017 7.49473L0.362214 8.53059L0.959363 8.34605L0.63905 7.31016C0.627758 7.27375 0.623752 7.23548 0.627262 7.19753C0.630772 7.15958 0.641728 7.12269 0.659505 7.08897C0.677282 7.05526 0.70153 7.02538 0.730864 7.00105C0.760197 6.97671 0.794039 6.9584 0.830456 6.94715L13.2007 3.1232L13.4644 3.97629L14.0615 3.79176L13.7978 2.93863L16.6557 2.05516L17.1996 3.81473C15.2543 4.6918 15.3938 7.52828 17.3966 8.2373L17.6052 7.64812C16.0259 7.08898 16.0653 4.80059 17.6596 4.30777Z" fill="white"/>
<path d="M12.0321 11.7085C12.0321 11.3488 11.5555 11.0862 11.2175 11.3992C11.108 11.5007 10.8504 11.8386 10.6064 12.1741H11.5038C11.7951 12.1741 12.0321 11.9653 12.0321 11.7085Z" fill="white"/>
<path d="M7.50098 13.1152V13.4388H9.68848V12.8027H7.81348C7.73062 12.8028 7.65119 12.8358 7.59261 12.8944C7.53402 12.953 7.50107 13.0324 7.50098 13.1152Z" fill="white"/>
<path d="M8.49801 12.1727H9.37207C9.11301 11.8372 8.84234 11.5003 8.73145 11.3978C8.38066 11.073 7.96973 11.3415 7.96973 11.7071C7.96973 11.9638 8.20672 12.1727 8.49801 12.1727Z" fill="white"/>
<path d="M7.50098 15.9395C7.50107 16.0223 7.53402 16.1017 7.59261 16.1603C7.65119 16.2189 7.73062 16.2519 7.81348 16.252H9.68848V14.0645H7.50098V15.9395Z" fill="white"/>
<path d="M12.1885 12.8027H10.3135V13.4388H12.501V13.1152C12.5009 13.0324 12.4679 12.953 12.4093 12.8944C12.3508 12.8358 12.2713 12.8028 12.1885 12.8027Z" fill="white"/>
<path d="M10.3135 16.252H12.1885C12.2713 16.2519 12.3508 16.2189 12.4093 16.1603C12.4679 16.1017 12.5009 16.0223 12.501 15.9395V14.0645H10.3135V16.252Z" fill="white"/>
<path d="M19.6689 11.9141H20.001V8.75H16.251V10.3125H15.626V8.75H2.18848C1.93992 8.75029 1.70164 8.84915 1.52588 9.02491C1.35013 9.20066 1.25127 9.43895 1.25098 9.6875V15.625H3.12598V16.25H1.25098V16.875H5.62598V17.5H1.25098V17.8125C1.25127 18.0611 1.35013 18.2993 1.52588 18.4751C1.70164 18.6508 1.93992 18.7497 2.18848 18.75H15.626V17.1875H16.251V18.75H20.001V15.5859H19.6689C19.1874 15.5854 18.7257 15.3939 18.3851 15.0533C18.0446 14.7128 17.8531 14.2511 17.8525 13.7695V13.7305C17.8531 13.2489 18.0446 12.7872 18.3851 12.4467C18.7257 12.1061 19.1874 11.9146 19.6689 11.9141ZM4.37598 16.25H3.75098V15.625H4.37598V16.25ZM13.126 15.9375C13.1257 16.1861 13.0268 16.4243 12.8511 16.6001C12.6753 16.7758 12.437 16.8747 12.1885 16.875H7.81348C7.56492 16.8747 7.32664 16.7758 7.15088 16.6001C6.97513 16.4243 6.87627 16.1861 6.87598 15.9375V13.1139C6.87623 12.9222 6.93512 12.7352 7.04475 12.578C7.15438 12.4208 7.30949 12.3009 7.48926 12.2344C7.39473 12.0746 7.34482 11.8923 7.34473 11.7066C7.34473 10.7959 8.40594 10.2444 9.15602 10.9385C9.33539 11.1045 9.72766 11.6064 9.99285 11.9545C10.2433 11.6051 10.6125 11.1057 10.7932 10.9385C11.5303 10.2563 12.6572 10.8011 12.6572 11.7065C12.6571 11.8922 12.6072 12.0744 12.5127 12.2343C12.6925 12.3008 12.8476 12.4207 12.9572 12.5779C13.0669 12.7352 13.1257 12.9222 13.126 13.1139V15.9375ZM16.251 16.5625H15.626V15.9375H16.251V16.5625ZM16.251 15.3125H15.626V14.6875H16.251V15.3125ZM16.251 14.0625H15.626V13.4375H16.251V14.0625ZM16.251 12.8125H15.626V12.1875H16.251V12.8125ZM16.251 11.5625H15.626V10.9375H16.251V11.5625Z" fill="white"/>
</g>
<defs>
<clipPath id="clip0_2767_13086">
<rect width="20" height="20" fill="white"/>
</clipPath>
</defs>
</svg>
