<svg width="187" height="175" viewBox="0 0 187 175" fill="none" xmlns="http://www.w3.org/2000/svg">
<path d="M18.9625 86.436C12.4751 81.5169 6.86972 73.4228 7.14341 62.4774C7.43947 50.6345 14.3107 48.7332 22.2665 46.5318C30.7281 44.1904 41.2586 41.2766 47.9718 24.7784C53.2035 11.9212 59.1302 4.89866 65.5871 3.9056C71.7052 2.96513 75.8163 7.83454 75.988 8.04198L74.3526 9.39967C74.3177 9.35783 70.8095 5.24062 65.8895 6.00968C60.31 6.88187 54.7951 13.6491 49.9405 25.5794C42.833 43.0459 31.7435 46.1146 22.833 48.5801C15.1068 50.7179 9.52466 52.2624 9.26782 62.5303C8.93109 75.992 18.2175 84.8139 26.2721 88.278C34.1707 91.675 41.9948 90.8786 46.692 86.1998L48.192 87.7056C42.8667 93.0105 34.146 93.9781 25.4328 90.2307C23.2985 89.3129 21.0831 88.0438 18.9625 86.436Z" fill="#B3B4B5"/>
<path d="M52.7975 155.344C52.5759 155.168 52.3583 154.996 52.1435 154.826C55.4289 152.316 59.7428 148.672 64.4353 144.553C80.0892 130.812 99.9611 111.771 99.9611 111.771L67.9773 88.7404L64.5634 84.4297C57.5089 96.4068 49.7574 116.475 44.5594 131.003C42.129 137.795 40.2562 143.378 39.2748 146.355C39.2582 146.381 39.2588 146.403 39.2588 146.403L31.8242 158.245L56.9456 174.768C56.9456 174.768 66.3996 166.148 52.7975 155.344Z" fill="#DEDEDF"/>
<path d="M48.7734 122.919C48.7734 122.919 58.6532 129.208 71.187 138.811L74.6057 135.573C74.6057 135.573 64.5772 127.699 50.5109 118.254L48.7734 122.919Z" fill="#79262E"/>
<path d="M90.6108 93.8273L53.8973 65.9883L47.681 77.6844C43.1812 91.1738 35.0571 98.251 27.3564 101.948L30.1282 125.517C68.7458 128.348 90.6108 93.8273 90.6108 93.8273Z" fill="white"/>
<path d="M13.9133 105.71C13.8525 105.708 13.8165 105.72 13.8165 105.72L1.2743 105.454L0 135.495C0 135.495 12.0207 139.106 14.467 122.436C19.9561 124.177 25.1797 125.151 30.129 125.514L27.3573 101.945C22.3159 104.365 17.4558 105.338 13.9133 105.71Z" fill="#6D6E6E"/>
<path d="M64.4081 90.2596L40.1642 71.8759C35.6455 68.4493 34.7599 62.0084 38.1865 57.4893L76.9573 6.35967C80.4548 1.74739 87.0288 0.843517 91.641 4.34101L112.55 26.7723L64.4081 90.2596Z" fill="#DEDEDF"/>
<path d="M88.1017 36.7522L66.3906 20.2891L64.678 22.5476L86.3891 39.0107L88.1017 36.7522Z" fill="#B3B4B5"/>
<path d="M68.5977 62.4748L46.8867 46.0117L45.1741 48.2702L66.8851 64.7333L68.5977 62.4748Z" fill="#B3B4B5"/>
<path d="M36.2471 95.9859C36.2471 95.9859 45.793 110.885 46.2645 124.534L51.3376 123.285C51.3376 123.285 49.4076 104.854 39.1466 93.0625L36.2471 95.9859Z" fill="#912B31"/>
<path d="M141.057 7.11743C121.481 -7.72613 105.181 5.25422 105.181 5.25422L103.619 4.06999C102.903 3.52726 101.883 3.6673 101.34 4.38318L90.2834 18.9647L87.8324 22.1969C86.9355 23.3797 86.5494 24.8725 86.7606 26.342L87.0369 36.1366C87.2507 37.6239 88.005 38.9801 89.1552 39.9464L98.3862 47.6997C120 66.4228 128.217 64.3571 128.217 64.3571C147.441 60.5513 163.9 24.4396 141.057 7.11743Z" fill="white"/>
<path d="M147.041 33.2434C145.574 36.8664 143.049 40.8177 139.608 45.3559C134.216 52.4656 111.141 51.635 97.5479 25.0508L96.7989 26.0383C94.983 28.4329 94.6503 31.6495 95.9633 34.3526C109.463 62.1437 133.165 63.1092 138.638 55.8908C145.661 46.6293 148.876 39.8104 147.041 33.2434Z" fill="#2F2E2E"/>
<path d="M139.608 45.3557C143.049 40.8173 145.574 36.8662 147.041 33.2432C145.737 28.574 141.882 24.0323 135.022 18.8311C118.515 6.31419 103.208 17.5859 103.208 17.5859L97.5479 25.051C111.141 51.6348 134.216 52.4655 139.608 45.3557Z" fill="#464648"/>
<path opacity="0.7" d="M117.451 17.2986C118.542 17.3346 119.632 17.3706 120.723 17.4067C123.155 17.4869 125.825 17.6626 127.583 19.3451C128.355 20.0843 128.885 21.272 128.392 22.22C128.106 22.7694 127.54 23.1137 126.973 23.3644C125.182 24.1573 123.1 24.2729 121.231 23.6832C120.605 23.4856 120.002 23.2122 119.361 23.0739C118.551 22.8993 117.714 22.9464 116.886 22.9254C115.055 22.8792 110.298 22.5838 110.63 19.8184C110.962 17.0452 115.495 17.2341 117.451 17.2986Z" fill="white"/>
<path d="M109.359 14.5197C109.359 14.5197 128.389 5.19837 145.614 28.3641C148.915 33.0804 147.234 39.9839 147.234 39.9839C147.234 39.9839 151.719 26.3265 137.157 15.3285C121.504 4.95955 111.451 12.9795 109.359 14.5197Z" fill="#8A8C8E"/>
<path d="M109.037 14.6773C109.037 14.6773 127.425 6.46731 144.65 29.633C147.951 34.349 147.328 39.5276 147.328 39.5276C147.328 39.5276 150.756 27.5955 136.193 16.5978C120.54 6.22849 111.129 13.1375 109.037 14.6773Z" fill="#59595B"/>
<path d="M109.359 14.5188C109.359 14.5188 127.907 5.83263 145.132 28.9983C148.433 33.7144 147.377 39.1733 147.377 39.1733C147.377 39.1733 151.238 26.9605 136.676 15.9628C121.022 5.59381 111.451 12.9787 109.359 14.5188Z" fill="#DEDEDF"/>
<path d="M105.458 20.666C108.069 20.3072 109.894 17.9003 109.535 15.29C109.176 12.6798 106.769 10.8547 104.159 11.2135C101.549 11.5724 99.7235 13.9793 100.082 16.5895C100.441 19.1998 102.848 21.0249 105.458 20.666Z" fill="#6D6E6E"/>
<path d="M108.583 14.7848C108.349 14.0163 107.883 13.3109 107.194 12.7882C105.454 11.4683 102.973 11.8094 101.653 13.55C101.131 14.2392 100.873 15.0443 100.855 15.8473C100.827 17.0728 101.364 18.2939 102.415 19.0912C104.156 20.4111 106.637 20.07 107.956 18.3294C108.753 17.2779 108.941 15.9574 108.583 14.7848Z" fill="white"/>
<path opacity="0.2" d="M108.583 14.7812C108.565 15.5843 108.307 16.3894 107.785 17.0785C106.465 18.8191 103.984 19.1599 102.244 17.8403C101.554 17.3179 101.089 16.6125 100.855 15.8437C100.827 17.0692 101.364 18.2904 102.415 19.0876C104.156 20.4075 106.637 20.0664 107.956 18.3258C108.753 17.2744 108.941 15.9539 108.583 14.7812Z" fill="#2F2E2E"/>
<path d="M128.217 64.3582C128.217 64.3582 139.239 88.3331 165.998 67.9946L174.859 76.0962C174.859 76.0962 151.819 113.588 116.584 84.9762L98.46 110.636L99.9603 111.774L94.9038 118.442L48.0381 82.9047L89.3708 36.9141L113.345 57.4083L128.217 64.3582Z" fill="white"/>
<path d="M88.5351 32.0946C88.5351 32.0946 53.1497 31.2686 38.5449 80.2082L51.3582 89.9244C51.3582 89.9244 63.4829 61.4165 80.1772 54.7397C81.8382 54.0752 83.3127 53.0165 84.5126 51.6896L94.1666 41.015L88.5351 32.0946Z" fill="#C8C9CB"/>
<path d="M88.5352 32.0906C88.5352 32.0906 51.2444 29.8198 36.6396 78.7593L49.4529 88.4755C49.4529 88.4755 61.9333 59.1318 79.0035 53.0134C80.0837 52.6261 81.0913 52.0616 81.9676 51.321L94.1664 41.0107L88.5352 32.0906Z" fill="white"/>
<path d="M128.217 64.3533C128.217 64.3533 109.925 62.5904 96.6607 43.1406L95.2217 45.0381C95.2217 45.0381 105.885 64.7883 129.65 66.6439L128.217 64.3533Z" fill="#C8C9CB"/>
<path d="M79.1285 48.1384C77.2627 50.5993 73.755 51.0813 71.2945 49.2154C68.8336 47.3496 68.3516 43.8419 70.2174 41.3814C72.0833 38.9205 75.5909 38.4385 78.0515 40.3044C80.5121 42.1702 80.9944 45.6779 79.1285 48.1384Z" fill="#DEDEDF"/>
<path d="M79.3531 45.6167C79.8277 43.0277 78.1136 40.5442 75.5246 40.0696C72.9356 39.595 70.4521 41.3091 69.9775 43.8981C69.5029 46.4871 71.217 48.9707 73.806 49.4452C76.395 49.9198 78.8785 48.2057 79.3531 45.6167Z" fill="#76A39A"/>
<path d="M143.576 76.0067L141.882 95.7278C141.882 95.7278 137.105 95.9364 132.315 93.9924C132.315 93.9924 133.445 90.2317 136.342 85.5462C138.694 81.7428 141.517 77.4353 142.859 75.8945C143.121 76.0067 143.576 76.0067 143.576 76.0067Z" fill="#C8C9CB"/>
<path d="M170.889 81.3026L162.291 70.6009L164.612 69.0195L173.41 78.1889L170.889 81.3026Z" fill="#C8C9CB"/>
<path opacity="0.2" d="M116.584 84.9763L118.743 82.129C118.743 82.129 145.654 108.808 173.356 74.7227L174.859 76.0963C174.859 76.0963 151.829 113.899 116.584 84.9763Z" fill="#2F2E2E"/>
<path d="M63.6203 65.0908L49.0176 53.2169C49.0176 53.2169 51.8721 48.9619 54.5671 46.6641L64.8516 63.6355L63.6203 65.0908Z" fill="#C8C9CB"/>
<path d="M37.9561 74.5918L51.2374 84.6627L53.134 81.0464L39.3957 70.6289L37.9561 74.5918Z" fill="#C8C9CB"/>
<path d="M100.027 108.563L57.0068 75.9414L55.4392 78.0087L98.4589 110.63L100.027 108.563Z" fill="#C8C9CB"/>
<path d="M186.221 69.0883L185.796 68.0546C185.553 67.4645 184.923 67.1324 184.299 67.266L181.216 67.893L184.815 64.0646C185.402 63.5509 185.418 62.6427 184.849 62.1087L184.204 61.5038C184.035 61.3455 183.834 61.2394 183.621 61.1863C183.271 61.0991 182.89 61.1557 182.573 61.3652L177.649 64.6207L182.211 58.6048C182.651 58.024 182.537 57.196 181.956 56.7556L181.097 56.1045C180.574 55.7076 179.838 55.7561 179.372 56.2181L174.814 61.4704L175.929 55.8837C176.158 55.3293 175.985 54.6895 175.507 54.327C174.874 53.847 173.964 54.0309 173.566 54.7186L170.217 62.4303L169.828 59.6406C169.737 58.9953 169.19 58.5121 168.538 58.5031L167.506 58.4889C166.781 58.479 166.184 59.056 166.168 59.7809L165.997 67.9941L173.356 74.7224L174.858 76.0961L185.546 70.7917C186.193 70.4983 186.492 69.7452 186.221 69.0883Z" fill="#6D6E6E"/>
<path d="M36.6389 78.7617C36.6389 78.7617 29.0173 84.7677 30.8692 88.1885C32.721 91.6093 36.2307 97.7591 42.0752 98.6688C44.5238 99.0497 47.2049 92.5213 47.2049 92.5213C47.2049 92.5213 48.0356 95.0812 49.8142 96.3541C51.5926 97.6266 55.267 95.8084 51.3581 89.9227L36.6389 78.7617Z" fill="#6D6E6E"/>
<path d="M86.1278 58.5827L84.6279 57.4453L65.0665 83.2423L66.5664 84.3797L86.1278 58.5827Z" fill="#C8C9CB"/>
<path d="M108.757 96.0646L75.5947 70.918L74.6315 72.1882L107.794 97.3349L108.757 96.0646Z" fill="#C8C9CB"/>
<path d="M89.5171 81.4756L88.3232 80.5703L78.3359 93.7413L79.5298 94.6466L89.5171 81.4756Z" fill="#C8C9CB"/>
<path d="M107.044 74.4394L102.951 71.3359L99.8477 75.4286L103.94 78.5321L107.044 74.4394Z" fill="#C8C9CB"/>
<path d="M114.361 79.9901L110.269 76.8867L102.935 86.5581L107.028 89.6615L114.361 79.9901Z" fill="#C8C9CB"/>
<path d="M102.814 80.0214L98.7217 76.918L95.6183 81.0107L99.711 84.1141L102.814 80.0214Z" fill="#C8C9CB"/>
<path d="M93.5338 75.0132L87.004 70.0615C86.4566 69.6467 86.3494 68.8666 86.7646 68.3192L90.4602 63.4454C90.8751 62.8981 91.6552 62.7908 92.2026 63.206L98.7324 68.1577C99.2798 68.5725 99.387 69.3526 98.9718 69.9L95.2762 74.7738C94.8613 75.3211 94.0812 75.4284 93.5338 75.0132Z" fill="#C8C9CB"/>
<path d="M39.2588 146.403L31.8242 158.246L56.9456 174.769C56.9456 174.769 66.3996 166.149 52.7975 155.344C52.5759 155.168 52.3583 154.996 52.1435 154.826C55.4289 152.316 57.6263 150.52 62.3187 146.401L43.7421 133.301C41.3117 140.093 40.2565 143.378 39.2751 146.355C39.2582 146.381 39.2588 146.403 39.2588 146.403Z" fill="#6D6E6E"/>
</svg>
