<svg width="60" height="60" viewBox="0 0 60 60" fill="none" xmlns="http://www.w3.org/2000/svg">
<path d="M5.73406 33.0156C5.73406 29.7663 8.37617 27.1227 11.6237 27.1227C14.8712 27.1227 17.5166 29.7664 17.5166 33.0156C17.5166 36.2649 14.873 38.9054 11.6237 38.9054C8.3743 38.9054 5.73406 36.2632 5.73406 33.0156ZM18.2209 39.8022H5.02988C2.80098 39.8022 2.46875 40.8054 2.46875 42.6423V53.7871C2.46875 56.6273 6.16602 56.418 6.16602 54.0031V47.6849C6.16602 47.3927 6.4052 47.1535 6.69746 47.1535C6.98645 47.1535 7.22563 47.3927 7.22563 47.6849V56.9995C7.22563 57.6173 7.73387 58.1255 8.35168 58.1255H14.8991C15.5169 58.1255 16.0251 57.6173 16.0251 56.9995V47.7282C16.0251 47.4392 16.261 47.2 16.5533 47.2C16.8455 47.2 17.0814 47.4392 17.0814 47.7282V54.0031C17.0814 56.4181 20.782 56.6274 20.782 53.7871V42.6423C20.782 40.8053 20.4498 39.8022 18.2209 39.8022ZM54.9705 39.8022H41.7828C39.5538 39.8022 39.2217 40.8054 39.2217 42.6423V53.7871C39.2217 56.6273 42.9189 56.418 42.9189 54.0031V47.6849C42.9189 47.3927 43.1581 47.1535 43.4471 47.1535C43.7395 47.1535 43.9787 47.3927 43.9787 47.6849V56.9995C43.9787 57.6173 44.4836 58.1255 45.1047 58.1255H51.6488C52.27 58.1255 52.7749 57.6173 52.7749 56.9995V47.7282C52.7749 47.4392 53.0141 47.2 53.3063 47.2C53.5953 47.2 53.8345 47.4392 53.8345 47.7282V54.0031C53.8345 56.4181 57.5318 56.6274 57.5318 53.7871V42.6423C57.5318 40.8053 57.1995 39.8022 54.9706 39.8022H54.9705ZM48.3766 27.1227C45.1272 27.1227 42.4837 29.7664 42.4837 33.0156C42.4837 36.2649 45.1272 38.9054 48.3766 38.9054C51.626 38.9054 54.2696 36.2632 54.2696 33.0156C54.2696 29.768 51.626 27.1227 48.3766 27.1227ZM16.9242 26.3453C17.7137 26.8067 18.7323 26.5422 19.1954 25.7562C19.2391 25.682 19.2973 25.6221 19.3636 25.5756L20.9763 22.8364C20.9864 22.7611 21.0112 22.6866 21.0522 22.6171C21.2749 22.2393 21.3361 21.7959 21.2245 21.3684C21.1133 20.9418 20.8443 20.586 20.4675 20.3662C19.6783 19.9049 18.6595 20.1692 18.1964 20.9553L17.8843 21.4837C17.8809 21.4899 17.877 21.4959 17.8735 21.502L16.3425 24.0947C16.1185 24.4715 16.0566 24.9135 16.1673 25.3409C16.278 25.7685 16.5467 26.1251 16.9241 26.3452L16.9242 26.3453ZM8.27902 19.0503L10.9732 20.1432C11.2913 20.2724 11.6547 20.1202 11.7828 19.8043L12.6412 17.6902C12.6437 17.6833 12.6446 17.6763 12.6473 17.6695C12.6499 17.6631 12.654 17.6579 12.6568 17.6515L18.0345 4.40711C18.0978 4.25313 18.0966 4.08508 18.0322 3.9318C17.9676 3.77805 17.848 3.65945 17.6954 3.59746L15.0014 2.50457C14.9251 2.47363 14.8461 2.45898 14.7685 2.45898C14.5228 2.45898 14.2896 2.60559 14.1917 2.84688L7.9366 18.2407C7.87496 18.393 7.87672 18.5617 7.94176 18.7157C8.0068 18.8695 8.12656 18.9883 8.27891 19.0502L8.27902 19.0503ZM30.6036 14.6389C30.6084 14.6365 30.6132 14.6343 30.6181 14.632C33.3495 13.387 36.1955 13.5436 39.0774 15.0978C39.0835 15.1011 39.0896 15.1046 39.0955 15.108C40.1077 15.7012 41.1193 16.2954 42.1307 16.8895C43.1639 17.4963 44.197 18.1029 45.2309 18.7088C45.238 18.7129 45.2449 18.7172 45.2518 18.7216C45.2612 18.727 45.2702 18.7323 45.2791 18.738L48.163 17.5663L44.0942 7.54586C41.9162 8.48031 39.8162 9.26043 37.0896 7.89356C34.9564 6.82398 32.5992 7.25582 30.9375 9.02066C30.9252 9.03379 30.9121 9.04645 30.8986 9.05828C28.4749 11.1967 26.1406 12.8876 23.951 14.0915C25.2328 16.0214 27.416 16.1989 30.6036 14.6389ZM49.4653 17.6657C49.4656 17.6665 49.4661 17.6671 49.4664 17.6679C49.4668 17.6688 49.4668 17.6695 49.4671 17.6703L50.3335 19.804C50.4616 20.1202 50.825 20.2718 51.1434 20.1433L53.8373 19.0504C53.9899 18.9886 54.1096 18.8698 54.1747 18.7159C54.2397 18.5621 54.2415 18.3932 54.1796 18.2406L47.9247 2.84758C47.8627 2.69465 47.744 2.575 47.5902 2.50984C47.5112 2.47645 47.4282 2.45969 47.3455 2.45969C47.2672 2.45969 47.189 2.47469 47.1148 2.5048L44.4209 3.5977C44.2684 3.65957 44.1488 3.77828 44.0841 3.93203C44.0197 4.08531 44.0185 4.25324 44.081 4.40512L49.4654 17.6658L49.4653 17.6657ZM35.3682 29.8382L34.2182 29.1626C34.1898 29.2191 34.16 29.2751 34.1275 29.3302L32.5456 32.0109L33.6478 32.6576C34.0255 32.879 34.4698 32.9393 34.8986 32.8278C35.3275 32.7161 35.6855 32.4466 35.9069 32.0688C36.3529 31.3102 36.1108 30.3111 35.3682 29.8382ZM39.7544 29.1377C40.2138 28.3539 39.9506 27.3414 39.1672 26.8806L39.1653 26.8796C39.1653 26.8796 39.1652 26.8796 39.1651 26.8796L32.2922 22.8468C32.0137 22.6833 31.9204 22.3252 32.0838 22.0468C32.2471 21.7683 32.6054 21.6748 32.8839 21.8384L39.7563 25.8708C39.7563 25.8708 39.7564 25.8708 39.7565 25.8708C39.7566 25.8708 39.7568 25.8711 39.7568 25.8711C39.757 25.8711 39.7572 25.8713 39.7575 25.8714L40.703 26.4255C41.4888 26.8861 42.5022 26.6222 42.9625 25.8371C43.4234 25.0509 43.1592 24.0357 42.3734 23.5741C42.3734 23.5741 42.3733 23.5741 42.3732 23.5739L36.2382 19.9734C35.9598 19.8099 35.8665 19.4516 36.03 19.1732C36.1934 18.8946 36.5516 18.8014 36.8301 18.965L42.9656 22.5659H42.9658C43.7511 23.0274 44.7662 22.7638 45.2288 21.9793C45.6559 21.2485 45.4549 20.3172 44.791 19.8195C44.7816 19.8134 44.7726 19.8071 44.7643 19.801L44.755 19.7941C44.7537 19.7931 44.7525 19.7922 44.7512 19.7914C44.717 19.7673 44.6823 19.7437 44.6458 19.7219C44.6391 19.7179 44.6323 19.7138 44.6259 19.7096C43.5962 19.1062 42.5674 18.5018 41.5385 17.8976C40.5303 17.3055 39.5221 16.7134 38.5132 16.1221C35.9763 14.7569 33.4859 14.6124 31.1102 15.6927C26.0356 18.1732 23.6928 16.212 22.6208 14.1293C22.4734 13.8429 22.5854 13.4911 22.8714 13.3428C25.1258 12.1736 27.5592 10.4432 30.1052 8.19895C30.1217 8.1816 30.1387 8.1652 30.1554 8.14797C28.6119 7.11883 26.7736 7.02027 25.0198 7.89707C22.2986 9.26102 20.2004 8.47844 18.0223 7.54551L13.9511 17.5721L15.752 18.3102C15.7614 18.3141 15.7708 18.3182 15.7802 18.3227C16.4986 18.6623 17.0755 19.2161 17.4848 19.9503C18.3582 18.938 19.8623 18.6579 21.0571 19.3561C21.7043 19.7335 22.1657 20.3433 22.3561 21.0728C22.3891 21.1997 22.4128 21.3273 22.4281 21.4552C23.2246 21.1149 24.1661 21.1422 24.9676 21.6122C25.6162 21.9912 26.0788 22.6032 26.2692 23.3348C26.2995 23.4511 26.3214 23.5682 26.3368 23.6855C27.1339 23.363 28.0735 23.4013 28.8766 23.8705C29.51 24.2398 29.9637 24.8331 30.1613 25.5433C31.0296 24.9844 32.1754 24.9201 33.1254 25.4751C33.7729 25.8527 34.2345 26.4636 34.4247 27.1947C34.4926 27.4554 34.5221 27.7197 34.5155 27.981L35.9734 28.8375C35.9734 28.8375 35.9735 28.8375 35.9736 28.8377C36.1471 28.9394 36.3226 29.0444 36.4987 29.1498C36.8444 29.3568 37.2018 29.5708 37.5457 29.7588C38.3155 30.173 39.3078 29.8952 39.7544 29.1377ZM29.0444 25.8845C28.9332 25.4569 28.6643 25.1003 28.2871 24.8805C27.5027 24.4221 26.4613 24.6719 26 25.4239C25.9909 25.44 25.9823 25.4566 25.9729 25.4726L23.8459 29.0854C23.6329 29.4462 23.5755 29.8754 23.6844 30.2937C23.7978 30.7298 24.0847 31.1091 24.4714 31.3347C25.2594 31.7952 26.2766 31.5309 26.7393 30.7457L28.872 27.1312C29.0945 26.7549 29.1556 26.3123 29.0444 25.8845ZM24.9655 24.8791C24.9699 24.8714 24.9733 24.8635 24.9777 24.8559C24.9798 24.852 24.9809 24.8479 24.9832 24.844C24.9845 24.8418 24.986 24.8397 24.9874 24.8373C25.1906 24.4689 25.2452 24.0422 25.1376 23.6294C25.0261 23.2007 24.7559 22.8427 24.377 22.6212C24.115 22.4676 23.8276 22.3946 23.5437 22.3946C22.9757 22.3946 22.4216 22.6867 22.113 23.2104L19.4689 27.7013C19.0089 28.486 19.273 29.4995 20.058 29.9597C20.843 30.4198 21.8585 30.1555 22.3214 29.3699L24.9655 24.8791C24.9655 24.8791 24.9655 24.8791 24.9656 24.8788L24.9655 24.8791ZM33.2912 28.3266C33.284 28.2344 33.3007 28.1405 33.3391 28.0513C33.3554 27.8655 33.3417 27.676 33.293 27.4889C33.1818 27.0613 32.9129 26.7047 32.5359 26.4849C31.7479 26.0242 30.7307 26.2888 30.268 27.0739L29.9684 27.5798C29.9587 27.5962 29.9462 27.6098 29.9352 27.6249C29.917 27.6586 29.8986 27.6924 29.8789 27.7255L28.321 30.3658C28.3196 30.3682 28.319 30.3708 28.3176 30.3732C28.0954 30.749 28.0344 31.1915 28.1456 31.6192C28.2568 32.047 28.5257 32.4034 28.9027 32.6233C29.6904 33.0835 30.7092 32.8185 31.1746 32.0331L31.2389 31.9243C31.2392 31.9237 31.2395 31.923 31.2398 31.9223C31.2402 31.9216 31.2407 31.9211 31.2412 31.9204L33.1207 28.7355C33.1972 28.606 33.2532 28.4684 33.2911 28.3265L33.2912 28.3266Z" fill="#FF741F"/>
</svg>
