<svg width="24" height="24" viewBox="0 0 24 24" fill="none" xmlns="http://www.w3.org/2000/svg">
<g clip-path="url(#clip0_2641_11992)">
<path d="M16.3618 5.46484L17.0781 5.24358L17.2915 5.93427L16.5752 6.15553L16.3618 5.46484Z" fill="#1A2A6C"/>
<path d="M16.7881 6.84766L17.5044 6.62639L17.7177 7.31708L17.0014 7.53834L16.7881 6.84766Z" fill="#1A2A6C"/>
<path d="M17.2148 8.22852L17.9311 8.00725L18.1445 8.69794L17.4282 8.9192L17.2148 8.22852Z" fill="#1A2A6C"/>
<path d="M21.1908 5.16855L21.5705 5.05108L20.4813 1.52734L0.774567 7.61922C0.636732 7.66176 0.508631 7.73104 0.397587 7.82311C0.286543 7.91519 0.194733 8.02824 0.127405 8.15581C0.0600769 8.28339 0.0185508 8.42298 0.00520025 8.56661C-0.00815026 8.71024 0.0069366 8.85509 0.0495985 8.99289L0.433973 10.2359L1.15055 10.0145L0.766177 8.77141C0.752626 8.72772 0.747819 8.6818 0.752031 8.63625C0.756242 8.59071 0.76939 8.54645 0.790723 8.50599C0.812055 8.46553 0.841153 8.42968 0.876353 8.40047C0.911553 8.37127 0.952164 8.34929 0.995864 8.3358L15.8401 3.74706L16.1566 4.77077L16.8732 4.54933L16.5567 3.52558L19.9862 2.46541L20.6389 4.57689C18.3045 5.62937 18.4719 9.03316 20.8752 9.88398L21.1255 9.17697C19.2304 8.506 19.2777 5.75992 21.1908 5.16855Z" fill="#1A2A6C"/>
<path d="M14.4374 14.0483C14.4374 13.6166 13.8655 13.3014 13.4599 13.6771C13.3284 13.7989 13.0193 14.2044 12.7266 14.607H13.8034C14.153 14.607 14.4374 14.3564 14.4374 14.0483Z" fill="#1A2A6C"/>
<path d="M9 15.7383V16.1266H11.625V15.3633H9.375C9.27558 15.3634 9.18026 15.4029 9.10996 15.4732C9.03966 15.5435 9.00011 15.6389 9 15.7383Z" fill="#1A2A6C"/>
<path d="M10.1964 14.6068H11.2453C10.9344 14.2043 10.6096 13.7999 10.4766 13.6769C10.0556 13.2872 9.5625 13.6094 9.5625 14.0482C9.5625 14.3562 9.84689 14.6068 10.1964 14.6068Z" fill="#1A2A6C"/>
<path d="M9 19.125C9.00011 19.2244 9.03966 19.3197 9.10996 19.39C9.18026 19.4603 9.27558 19.4999 9.375 19.5H11.625V16.875H9V19.125Z" fill="#1A2A6C"/>
<path d="M14.625 15.3633H12.375V16.1266H15V15.7383C14.9999 15.6389 14.9603 15.5435 14.89 15.4732C14.8197 15.4029 14.7244 15.3634 14.625 15.3633Z" fill="#1A2A6C"/>
<path d="M12.375 19.5H14.625C14.7244 19.4999 14.8197 19.4603 14.89 19.39C14.9603 19.3197 14.9999 19.2244 15 19.125V16.875H12.375V19.5Z" fill="#1A2A6C"/>
<path d="M23.6021 14.2969H24.0005V10.5H19.5005V12.375H18.7505V10.5H2.62549C2.32723 10.5003 2.04128 10.619 1.83038 10.8299C1.61947 11.0408 1.50084 11.3267 1.50049 11.625V18.75H3.75049V19.5H1.50049V20.25H6.75049V21H1.50049V21.375C1.50084 21.6733 1.61947 21.9592 1.83038 22.1701C2.04128 22.381 2.32723 22.4997 2.62549 22.5H18.7505V20.625H19.5005V22.5H24.0005V18.7031H23.6021C23.0242 18.7025 22.4701 18.4726 22.0615 18.064C21.6529 17.6554 21.423 17.1013 21.4224 16.5234V16.4766C21.423 15.8987 21.6529 15.3446 22.0615 14.936C22.4701 14.5274 23.0242 14.2975 23.6021 14.2969ZM5.25049 19.5H4.50049V18.75H5.25049V19.5ZM15.7505 19.125C15.7501 19.4233 15.6315 19.7092 15.4206 19.9201C15.2097 20.131 14.9237 20.2497 14.6255 20.25H9.37549C9.07723 20.2497 8.79128 20.131 8.58038 19.9201C8.36947 19.7092 8.25084 19.4233 8.25049 19.125V15.7367C8.25079 15.5067 8.32147 15.2823 8.45302 15.0936C8.58457 14.9049 8.77071 14.7611 8.98643 14.6813C8.873 14.4895 8.8131 14.2708 8.81299 14.048C8.81299 12.9551 10.0864 12.2932 10.9865 13.1262C11.2018 13.3254 11.6725 13.9277 11.9907 14.3453C12.2913 13.9261 12.7344 13.3268 12.9511 13.1262C13.8357 12.3075 15.188 12.9613 15.188 14.0478C15.1879 14.2706 15.128 14.4893 15.0146 14.6811C15.2303 14.7609 15.4164 14.9048 15.548 15.0935C15.6796 15.2822 15.7502 15.5067 15.7505 15.7367V19.125ZM19.5005 19.875H18.7505V19.125H19.5005V19.875ZM19.5005 18.375H18.7505V17.625H19.5005V18.375ZM19.5005 16.875H18.7505V16.125H19.5005V16.875ZM19.5005 15.375H18.7505V14.625H19.5005V15.375ZM19.5005 13.875H18.7505V13.125H19.5005V13.875Z" fill="#1A2A6C"/>
</g>
<defs>
<clipPath id="clip0_2641_11992">
<rect width="24" height="24" fill="white"/>
</clipPath>
</defs>
</svg>
