<svg width="60" height="60" viewBox="0 0 60 60" fill="none" xmlns="http://www.w3.org/2000/svg">
<g clip-path="url(#clip0_3139_14093)">
<path d="M51.3389 32.0293H46.6987C47.1717 33.3242 47.4301 34.7217 47.4301 36.1782V53.7154C47.4301 54.3226 47.3244 54.9055 47.1321 55.4476H54.8033C57.6689 55.4476 60.0001 53.1163 60.0001 50.2508V40.6905C60.0002 35.9148 56.1148 32.0293 51.3389 32.0293Z" fill="#FF741F"/>
<path d="M12.5701 36.1782C12.5701 34.7216 12.8285 33.3242 13.3015 32.0293H8.66135C3.88548 32.0293 0 35.9148 0 40.6906V50.2509C0 53.1164 2.33122 55.4477 5.19681 55.4477H12.8681C12.6758 54.9054 12.5701 54.3226 12.5701 53.7154V36.1782Z" fill="#FF741F"/>
<path d="M35.3041 27.5176H24.696C19.9201 27.5176 16.0347 31.4031 16.0347 36.1789V53.7161C16.0347 54.6727 16.8102 55.4483 17.7669 55.4483H42.2332C43.1899 55.4483 43.9654 54.6728 43.9654 53.7161V36.1789C43.9654 31.4031 40.0799 27.5176 35.3041 27.5176Z" fill="#FF741F"/>
<path d="M29.9998 4.55078C24.2562 4.55078 19.5835 9.22352 19.5835 14.9672C19.5835 18.8632 21.7338 22.2657 24.9093 24.0521C26.4155 24.8994 28.152 25.3836 29.9998 25.3836C31.8477 25.3836 33.5841 24.8994 35.0904 24.0521C38.266 22.2657 40.4162 18.863 40.4162 14.9672C40.4162 9.22364 35.7434 4.55078 29.9998 4.55078Z" fill="#FF741F"/>
<path d="M11.709 14.2598C7.41348 14.2598 3.91895 17.7543 3.91895 22.0498C3.91895 26.3453 7.41348 29.8399 11.709 29.8399C12.7986 29.8399 13.8362 29.6142 14.7787 29.2085C16.4083 28.5069 17.752 27.2649 18.5835 25.7092C19.1671 24.6174 19.4991 23.3718 19.4991 22.0498C19.4991 17.7544 16.0045 14.2598 11.709 14.2598Z" fill="#FF741F"/>
<path d="M48.291 14.2598C43.9955 14.2598 40.501 17.7543 40.501 22.0498C40.501 23.3719 40.833 24.6175 41.4166 25.7092C42.248 27.265 43.5917 28.507 45.2213 29.2085C46.1638 29.6142 47.2014 29.8399 48.291 29.8399C52.5865 29.8399 56.0811 26.3453 56.0811 22.0498C56.0811 17.7543 52.5865 14.2598 48.291 14.2598Z" fill="#FF741F"/>
</g>
<defs>
<clipPath id="clip0_3139_14093">
<rect width="60" height="60" fill="white"/>
</clipPath>
</defs>
</svg>
