<svg width="60" height="60" viewBox="0 0 60 60" fill="none" xmlns="http://www.w3.org/2000/svg">
<path fill-rule="evenodd" clip-rule="evenodd" d="M47.0959 18.5223H39.4458C38.9936 18.5223 38.627 18.1557 38.627 17.7035C38.627 17.2513 38.9936 16.8847 39.4458 16.8847H47.0959C48.8663 16.8847 50.3065 18.325 50.3065 20.0953V30.6255C50.3065 31.0778 49.9399 31.4443 49.4877 31.4443C49.0355 31.4443 48.6689 31.0778 48.6689 30.6255V20.0953C48.6689 19.228 47.9633 18.5223 47.0959 18.5223ZM20.3452 16.8846H12.6948C10.9246 16.8846 9.48434 18.3248 9.48434 20.0952V30.6254C9.48434 31.0777 9.8509 31.4442 10.3031 31.4442C10.7554 31.4442 11.1219 31.0777 11.1219 30.6254V20.0952C11.1219 19.2279 11.8275 18.5222 12.6948 18.5222H20.345C20.7973 18.5222 21.1638 18.1556 21.1638 17.7034C21.1638 17.2512 20.7973 16.8846 20.345 16.8846H20.3452ZM30.7143 30.6255V29.1473C30.7143 28.6951 30.3477 28.3286 29.8955 28.3286C29.4432 28.3286 29.0767 28.6951 29.0767 29.1473V30.6255C29.0767 31.0778 29.4432 31.4443 29.8955 31.4443C30.3477 31.4443 30.7143 31.0778 30.7143 30.6255ZM15.8938 42.8831H4.92176C3.0648 42.8831 2.78906 43.7169 2.78906 45.2416V54.5162C2.78906 56.878 5.86512 56.7053 5.86512 54.6956V49.7361C5.86512 49.4937 6.06445 49.2976 6.30691 49.2976C6.54938 49.2976 6.74543 49.4935 6.74543 49.7361V57.187C6.74543 57.7052 7.1673 58.1238 7.68551 58.1238H13.13C13.645 58.1238 14.0668 57.7052 14.0668 57.187V49.477C14.0668 49.2346 14.2662 49.0352 14.5086 49.0352C14.7511 49.0352 14.9471 49.2346 14.9471 49.477V54.6956C14.9471 56.7054 18.0232 56.8781 18.0232 54.5162V45.2416C18.0232 43.7169 17.7475 42.8831 15.8939 42.8831H15.8938ZM10.406 41.9331C12.9173 41.9331 14.9637 39.8835 14.9637 37.3755C14.9637 34.8676 12.9175 32.818 10.406 32.818C7.89457 32.818 5.84848 34.8642 5.84848 37.3755C5.84848 39.8869 7.89809 41.9331 10.406 41.9331ZM35.486 42.6207H24.514C22.657 42.6207 22.3813 43.4578 22.3813 44.9825V54.2571C22.3813 56.6189 25.4573 56.4429 25.4573 54.4365V49.477C25.4573 49.2346 25.6567 49.0352 25.8991 49.0352C26.1416 49.0352 26.3409 49.2346 26.3409 49.477V56.9279C26.3409 57.4428 26.7595 57.8647 27.2777 57.8647H32.7223C33.2372 57.8647 33.6591 57.4428 33.6591 56.9279V49.2179C33.6591 48.9755 33.8584 48.7761 34.1009 48.7761C34.3433 48.7761 34.5394 48.9755 34.5394 49.2179V54.4365C34.5394 56.4462 37.6154 56.619 37.6154 54.2571V44.9825C37.6154 43.4578 37.3397 42.6207 35.4861 42.6207H35.486ZM25.4441 37.1164C25.4441 39.6244 27.4903 41.6707 29.9984 41.6707C32.5064 41.6707 34.5559 39.6245 34.5559 37.1164C34.5559 34.6084 32.5097 32.5588 29.9984 32.5588C27.487 32.5588 25.4441 34.605 25.4441 37.1164ZM55.0782 42.6207H44.1062C42.2493 42.6207 41.9736 43.4578 41.9736 44.9825V54.2571C41.9736 56.6189 45.0497 56.4429 45.0497 54.4365V49.477C45.0497 49.2346 45.249 49.0352 45.4915 49.0352C45.7339 49.0352 45.9333 49.2346 45.9333 49.477V56.9279C45.9333 57.4428 46.3552 57.8647 46.8701 57.8647H52.3146C52.8295 57.8647 53.2514 57.4428 53.2514 56.9279V49.2179C53.2514 48.9755 53.4507 48.7761 53.6932 48.7761C53.9357 48.7761 54.1317 48.9755 54.1317 49.2179V54.4365C54.1317 56.4462 57.2111 56.619 57.2111 54.2571V44.9825C57.2111 43.4578 56.932 42.6207 55.0784 42.6207H55.0782ZM45.0363 37.1164C45.0363 39.6244 47.0825 41.6707 49.5906 41.6707C52.0986 41.6707 54.1481 39.6245 54.1481 37.1164C54.1481 34.6084 52.1019 32.5588 49.5906 32.5588C47.0793 32.5588 45.0363 34.605 45.0363 37.1164ZM25.3543 23.7526V18.7931C25.3543 18.5507 25.5537 18.3513 25.7929 18.3513C26.0353 18.3513 26.2346 18.5507 26.2346 18.7931V26.244C26.2346 26.7589 26.6565 27.1808 27.1714 27.1808H32.6193C33.1342 27.1808 33.5561 26.7589 33.5561 26.244V18.534C33.5561 18.2916 33.7521 18.0922 33.9946 18.0922C34.237 18.0922 34.4364 18.2916 34.4364 18.534V23.7526C34.4364 25.7624 37.5124 25.9351 37.5124 23.5732V14.2986C37.5124 12.7739 37.2367 11.9401 35.3831 11.9401H24.4077C22.5541 11.9401 22.2784 12.7739 22.2784 14.2986V23.5732C22.2784 25.935 25.3545 25.7623 25.3545 23.7526H25.3543ZM29.8954 10.9901C32.4034 10.9901 34.453 8.94047 34.453 6.43254C34.453 3.92461 32.4034 1.875 29.8954 1.875C27.3873 1.875 25.3378 3.92121 25.3378 6.43254C25.3378 8.94387 27.384 10.9901 29.8954 10.9901Z" fill="#FF741F"/>
</svg>
