<svg width="60" height="60" viewBox="0 0 60 60" fill="none" xmlns="http://www.w3.org/2000/svg">
<path fill-rule="evenodd" clip-rule="evenodd" d="M13.8032 1.875C14.984 1.875 16.1383 2.22516 17.1202 2.88121C18.102 3.53725 18.8673 4.46971 19.3192 5.56067C19.771 6.65163 19.8893 7.85209 19.6589 9.01025C19.4285 10.1684 18.8599 11.2322 18.0249 12.0672C17.1899 12.9022 16.1261 13.4708 14.9679 13.7012C13.8098 13.9316 12.6093 13.8134 11.5184 13.3615C10.4274 12.9096 9.49494 12.1443 8.8389 11.1625C8.18286 10.1806 7.8327 9.02632 7.8327 7.84547C7.8327 6.262 8.46172 4.74339 9.5814 3.62371C10.7011 2.50403 12.2197 1.875 13.8032 1.875ZM38.6341 4.79625C27.8696 4.79625 19.1433 13.5267 19.1433 24.2972C19.1433 35.0677 27.8696 43.7981 38.6341 43.7981C49.3986 43.7981 58.125 35.0673 58.125 24.2972C58.125 13.5271 49.3986 4.79625 38.6341 4.79625ZM38.6341 19.3861C39.6053 19.3871 40.5543 19.6761 41.3613 20.2164C42.1683 20.7567 42.797 21.5241 43.1679 22.4216C43.5388 23.3191 43.6353 24.3065 43.4452 25.2588C43.2551 26.2112 42.7869 27.0858 42.0998 27.7722C41.4127 28.4585 40.5376 28.9257 39.585 29.1148C38.6324 29.3038 37.6452 29.2063 36.7481 28.8344C35.851 28.4625 35.0842 27.8329 34.5448 27.0254C34.0054 26.2178 33.7175 25.2685 33.7175 24.2973C33.7195 22.9944 34.2383 21.7456 35.1601 20.8248C36.0818 19.904 37.3313 19.3866 38.6341 19.3861ZM38.6341 20.7923C39.3271 20.7934 40.0042 20.9999 40.5799 21.3857C41.1556 21.7714 41.604 22.3192 41.8685 22.9597C42.1329 23.6003 42.2016 24.3048 42.0657 24.9844C41.9299 25.6639 41.5956 26.2879 41.1052 26.7776C40.6148 27.2672 39.9903 27.6005 39.3106 27.7353C38.6308 27.8701 37.9263 27.8004 37.2862 27.5349C36.6461 27.2695 36.099 26.8203 35.7141 26.244C35.3292 25.6677 35.1238 24.9903 35.1238 24.2973C35.1235 23.8365 35.2142 23.3802 35.3905 22.9544C35.5669 22.5287 35.8256 22.142 36.1517 21.8164C36.4777 21.4908 36.8649 21.2328 37.2909 21.057C37.7169 20.8813 38.1733 20.7914 38.6341 20.7923ZM53.7002 24.7266C46.16 34.9854 30.9541 34.7947 23.5575 24.7124C23.4676 24.5896 23.42 24.4409 23.4219 24.2887C23.4238 24.1366 23.4751 23.9891 23.568 23.8686C31.1118 13.6049 46.3124 13.7972 53.7109 23.8829C53.8009 24.0057 53.8485 24.1544 53.8466 24.3066C53.8446 24.4588 53.7933 24.6062 53.7002 24.7267V24.7266ZM52.2656 24.2972C45.2923 33.23 31.8633 33.0845 25.0032 24.2972C31.9855 15.3527 45.3994 15.5018 52.2656 24.2972ZM19.6028 41.3108L22.8807 38.0329C23.5035 38.747 24.1737 39.4182 24.8869 40.042L21.6104 43.3185C21.918 44.0313 22.0051 44.8199 21.8603 45.5826C21.7156 46.3453 21.3457 47.0472 20.7983 47.5977L11.3999 56.9961C10.6735 57.7205 9.68939 58.1269 8.6636 58.1262C7.6378 58.1255 6.65421 57.7177 5.92886 56.9924C5.2035 56.2671 4.79568 55.2835 4.79495 54.2577C4.79423 53.2319 5.20067 52.2477 5.925 51.5214L15.3234 42.1229C15.874 41.5756 16.5759 41.2057 17.3386 41.061C18.1013 40.9163 18.8899 41.0033 19.6027 41.3109L19.6028 41.3108ZM19.7317 15.3755C17.7715 19.5431 17.2374 24.24 18.212 28.7413H2.99684C2.6995 28.7407 2.4145 28.6224 2.20424 28.4121C1.99397 28.2019 1.87559 27.9169 1.875 27.6196L1.88777 25.7563C1.88811 23.2039 2.70593 20.7188 4.22139 18.665C5.73684 16.6112 7.87025 15.0968 10.309 14.3438C11.3864 14.9223 12.5907 15.2242 13.8136 15.2225C15.0365 15.2208 16.2399 14.9155 17.3157 14.334C18.1571 14.5905 18.9674 14.9397 19.7317 15.375V15.3755Z" fill="#FF741F"/>
</svg>
